<svg width="10" height="10" viewBox="0 0 10 10" fill="none" xmlns="http://www.w3.org/2000/svg">
<g clip-path="url(#clip0_56_722)">
<path d="M8.12472 0H4.37472C4.02972 0 3.74972 0.279583 3.74972 0.625C3.74972 0.970417 4.02972 1.25 4.37472 1.25H7.86597L0.182637 8.93292C-0.0615299 9.17667 -0.0615299 9.57292 0.182637 9.81667C0.30472 9.93875 0.46472 9.99958 0.62472 9.99958C0.78472 9.99958 0.94472 9.93875 1.0668 9.81667L8.74972 2.13375V5.625C8.74972 5.97042 9.02972 6.25 9.37472 6.25C9.71972 6.25 9.99972 5.97042 9.99972 5.625V1.875C9.99972 0.84125 9.15847 0 8.12472 0Z" fill="#565656"/>
</g>
<defs>
<clipPath id="clip0_56_722">
<rect width="10" height="10" fill="white"/>
</clipPath>
</defs>
</svg>
