<svg width="16" height="16" viewBox="0 0 16 16" fill="none" xmlns="http://www.w3.org/2000/svg">
<g clip-path="url(#clip0_43_649)">
<path d="M0 12V3.33335C0 1.86269 1.196 0.666687 2.66667 0.666687H4C4.30933 0.666687 4.61867 0.739354 4.89467 0.877354L6.998 1.92935C7.09 1.97535 7.19333 1.99935 7.296 1.99935H10.6667C12.5047 1.99935 14 3.49469 14 5.33269H6.68267C4.924 5.33269 3.34733 6.51002 2.84667 8.20135L1.06467 14.4274C0.413333 13.8187 0 12.9594 0 12ZM15.662 7.34469C15.3427 6.91602 14.856 6.67002 14.3233 6.66135C14.3133 6.66135 14.3053 6.66669 14.2953 6.66669H6.68267C5.51067 6.66669 4.45933 7.45135 4.12667 8.57469L2.248 15.1367C2.59 15.2554 2.95133 15.3334 3.33333 15.3334H11.7053C13.1893 15.3334 14.472 14.3787 14.9067 12.9287L15.928 8.85135C16.084 8.33002 15.9867 7.78135 15.662 7.34469Z" fill="#A0A0A0"/>
</g>
<defs>
<clipPath id="clip0_43_649">
<rect width="16" height="16" fill="white"/>
</clipPath>
</defs>
</svg>
