<svg width="10" height="10" viewBox="0 0 10 10" fill="none" xmlns="http://www.w3.org/2000/svg">
<g clip-path="url(#clip0_64_12)">
<path d="M10 1.25004C10 1.47921 9.8125 1.66671 9.58333 1.66671H0.416667C0.1875 1.66671 0 1.47921 0 1.25004C0 1.02087 0.1875 0.833374 0.416667 0.833374H9.58333C9.8125 0.833374 10 1.02087 10 1.25004ZM6.25 8.33338H3.75C3.52083 8.33338 3.33333 8.52088 3.33333 8.75004C3.33333 8.97921 3.52083 9.16671 3.75 9.16671H6.25C6.47917 9.16671 6.66667 8.97921 6.66667 8.75004C6.66667 8.52088 6.47917 8.33338 6.25 8.33338ZM7.91667 4.58337H2.08333C1.85417 4.58337 1.66667 4.77087 1.66667 5.00004C1.66667 5.22921 1.85417 5.41671 2.08333 5.41671H7.91667C8.14583 5.41671 8.33333 5.22921 8.33333 5.00004C8.33333 4.77087 8.14583 4.58337 7.91667 4.58337Z" fill="#565656"/>
</g>
<defs>
<clipPath id="clip0_64_12">
<rect width="10" height="10" fill="white"/>
</clipPath>
</defs>
</svg>
